# xmcd
#
# Track frame offsets:
#	150
#	11847
#	25927
#	38257
#	51765
#	65496
#	79137
#	92776
#	104880
#	121348
#	134153
#	147680
#	161926
#	173973
#
# Disc length: 2503 seconds
#
# Revision: 1
# Processed by: cddbd v1.5.2PL0 Copyright (c) Steve Scherf et al.
# Submitted via: audiograbber 1.83.01
#
DISCID=cf09c50e
DTITLE=Jimmie Davis - I Wonder Who's Kissing Her
DYEAR=1900
DGENRE=
TTITLE0=You're My Darling
TTITLE1=I Hung My Head and Cried
TTITLE2=Do You Ever Think of Me
TTITLE3=Ridin' Down the Arizona Trail
TTITLE4=My Blue Bonnet Girl
TTITLE5=I've Learned My Lesson
TTITLE6=In the West Where Life Is Free
TTITLE7=By the Grave of Nobody's Darling
TTITLE8=You're the Picture of Your Mother
TTITLE9=Shackles and Chains
TTITLE10=I Wish I Had Never Seen Sunshine
TTITLE11=Answer to Nobody's Darling
TTITLE12=Prairie of Love
TTITLE13=Where the Old Red River Flows
EXTD=
EXTT0=
EXTT1=
EXTT2=
EXTT3=
EXTT4=
EXTT5=
EXTT6=
EXTT7=
EXTT8=
EXTT9=
EXTT10=
EXTT11=
EXTT12=
EXTT13=
PLAYORDER=
